<?xml version="1.0" encoding="utf-8"?>
<!-- Generator: Adobe Illustrator 16.0.0, SVG Export Plug-In . SVG Version: 6.00 Build 0)  -->
<!DOCTYPE svg PUBLIC "-//W3C//DTD SVG 1.1//EN" "http://www.w3.org/Graphics/SVG/1.1/DTD/svg11.dtd">
<svg version="1.1" id="Layer_1" xmlns="http://www.w3.org/2000/svg" xmlns:xlink="http://www.w3.org/1999/xlink" x="0px" y="0px"
	 width="50px" height="50px" viewBox="0 0 50 50" enable-background="new 0 0 50 50" xml:space="preserve">
<path d="M37.75,4.25h-25.5c-0.553,0-1,0.448-1,1v39.5c0,0.552,0.447,1,1,1h25.5c0.553,0,1-0.448,1-1V5.25
	C38.75,4.698,38.303,4.25,37.75,4.25z M36.75,43.75h-23.5V6.25h23.5V43.75z M22.365,24.903c-0.167-0.116-0.352-0.192-0.543-0.244
	c0.074-0.341,0.275-0.65,0.604-0.832c0.604-0.331,1.364-0.112,1.697,0.492c0.218,0.394,0.474,0.792,0.724,1.147
	c-0.046,0.31-0.096,0.579-0.148,0.8C24.1,25.989,23.195,25.481,22.365,24.903z M16.375,15.728c-0.012,0.313,0.038,0.633,0.169,0.94
	l2.021,4.75c0.131,0.307,0.326,0.564,0.56,0.773c-0.254,0.763-0.187,1.472,0.199,1.627c0.391,0.157,0.942-0.317,1.288-1.062
	c0.279-0.002,0.565-0.057,0.84-0.174l4.165-1.771c-0.023,0.039-0.059,0.07-0.078,0.111c-0.218,0.26-0.289,0.547-0.286,0.962
	c0.002,0.017,0.054,0.8,0.124,1.202c0.282,1.622,0.076,3.203-0.144,3.824c-0.625-0.131-1.95-0.694-3.069-1.323
	c-0.601-0.337-1.362-0.125-1.702,0.478c-0.338,0.604-0.125,1.363,0.477,1.703c2.648,1.488,4.053,1.73,4.812,1.656
	c0.41-0.04,0.633-0.172,0.765-0.249c0.521-0.311,0.875-0.87,1.104-1.579l1.269,2.439l-2.828,1.216
	c-0.396,0.171-0.702,0.504-0.833,0.915c-0.134,0.411-0.082,0.859,0.139,1.23l3.2,5.383c0.309,0.516,0.875,0.781,1.437,0.727
	c0.213-0.021,0.427-0.088,0.621-0.204c0.713-0.424,0.944-1.344,0.521-2.056l-2.328-3.914l4.457-1.918
	c0.765-0.328,1.113-1.21,0.785-1.971c-0.053-0.123-0.302-0.611-0.384-0.771l-3.687-7.1c-0.481-0.927-1.275-1.55-2.084-1.735
	l2.103-0.894c0.274-0.117,0.513-0.284,0.708-0.485c0.775,0.267,1.501,0.199,1.658-0.191c0.154-0.385-0.309-0.925-1.033-1.271
	c0.012-0.313-0.037-0.633-0.168-0.941l-2.02-4.75c-0.131-0.307-0.326-0.564-0.563-0.773c0.254-0.763,0.188-1.472-0.197-1.627
	C28,8.749,27.451,9.224,27.105,9.968c-0.281,0.002-0.566,0.058-0.844,0.174l-8.549,3.636c-0.275,0.117-0.513,0.284-0.71,0.485
	c-0.774-0.267-1.499-0.199-1.655,0.191C15.188,14.841,15.648,15.382,16.375,15.728z M25.025,14.408
	c1.637-0.158,3.094,1.04,3.252,2.678c0.158,1.639-1.041,3.095-2.678,3.253c-1.641,0.159-3.097-1.04-3.254-2.678
	C22.188,16.023,23.389,14.567,25.025,14.408z"/>
</svg>
