<?xml version="1.0" encoding="iso-8859-1"?>
<!-- Generator: Adobe Illustrator 16.0.0, SVG Export Plug-In . SVG Version: 6.00 Build 0)  -->
<!DOCTYPE svg PUBLIC "-//W3C//DTD SVG 1.1//EN" "http://www.w3.org/Graphics/SVG/1.1/DTD/svg11.dtd">
<svg version="1.1" id="Capa_1" xmlns="http://www.w3.org/2000/svg" xmlns:xlink="http://www.w3.org/1999/xlink" x="0px" y="0px"
	 width="471.829px" height="471.829px" viewBox="0 0 471.829 471.829" style="enable-background:new 0 0 471.829 471.829;"
	 xml:space="preserve">
<g>
	<path d="M319.1,27.221h-36.485V0H187.34v27.221H152.74c-22.52,0-40.832,18.317-40.832,40.832v362.946
		c0,22.51,18.317,40.83,40.832,40.83h166.349c22.524,0,40.832-18.32,40.832-40.83V68.052
		C359.926,45.538,341.613,27.221,319.1,27.221z M332.705,431.002c0,7.501-6.108,13.607-13.616,13.607H152.74
		c-7.51,0-13.61-6.095-13.61-13.607V68.052c0-7.501,6.1-13.611,13.61-13.611h166.349c7.508,0,13.616,6.109,13.616,13.611V431.002z
		 M284.309,124.012c0,5.015-4.061,9.078-9.072,9.078H245v30.242c0,5.015-4.062,9.078-9.081,9.078c-5.013,0-9.071-4.063-9.071-9.078
		v-30.242h-30.242c-5.015,0-9.07-4.062-9.07-9.078c0-5.009,4.061-9.07,9.07-9.07h30.242V84.696c0-5.015,4.062-9.079,9.071-9.079
		c5.019,0,9.081,4.063,9.081,9.079v30.246h30.236C280.248,114.942,284.309,119.002,284.309,124.012z M284.309,405.294
		c0,5.007-4.061,9.072-9.072,9.072h-78.641c-5.015,0-9.07-4.065-9.07-9.072c0-5.019,4.06-9.078,9.07-9.078h78.629
		C280.248,396.216,284.309,400.276,284.309,405.294z"/>
</g>
<g>
</g>
<g>
</g>
<g>
</g>
<g>
</g>
<g>
</g>
<g>
</g>
<g>
</g>
<g>
</g>
<g>
</g>
<g>
</g>
<g>
</g>
<g>
</g>
<g>
</g>
<g>
</g>
<g>
</g>
</svg>
