<?xml version="1.0" encoding="iso-8859-1"?>
<!-- Generator: Adobe Illustrator 16.0.0, SVG Export Plug-In . SVG Version: 6.00 Build 0)  -->
<!DOCTYPE svg PUBLIC "-//W3C//DTD SVG 1.1//EN" "http://www.w3.org/Graphics/SVG/1.1/DTD/svg11.dtd">
<svg version="1.1" id="Capa_1" xmlns="http://www.w3.org/2000/svg" xmlns:xlink="http://www.w3.org/1999/xlink" x="0px" y="0px"
	 width="476.378px" height="476.378px" viewBox="0 0 476.378 476.378" style="enable-background:new 0 0 476.378 476.378;"
	 xml:space="preserve">
<g>
	<path d="M252.65,247.105v194.051v24.057v3.191c0,4.403-3.57,7.974-7.979,7.974h-12.945c-4.413,0-7.986-3.576-7.986-7.974V247.105
		c0-3.901,2.793-7.129,6.479-7.832V125.119c0-4.4,3.57-7.971,7.971-7.971s7.971,3.576,7.971,7.971v114.154
		C249.849,239.977,252.65,243.204,252.65,247.105z M331.961,114.497c0-24.592-20.021-44.608-44.614-44.608v6.652
		c20.936,0,37.952,17.032,37.952,37.956c0,20.937-17.028,37.968-37.952,37.968v6.653
		C311.946,159.124,331.961,139.106,331.961,114.497z M388.592,115.907c0-44.638-36.31-80.948-80.937-80.948v6.652
		c40.962,0,74.287,33.331,74.287,74.296c0,40.964-33.325,74.283-74.287,74.283v6.652
		C352.282,196.843,388.592,160.533,388.592,115.907z M323.821,0v6.652c60.687,0,110.076,49.385,110.076,110.079
		c0,60.695-49.378,110.079-110.076,110.079v6.649c64.362,0,116.726-52.36,116.726-116.723C440.547,52.372,388.184,0,323.821,0z
		 M144.427,115.334c0,24.598,20.011,44.614,44.608,44.614v-6.652c-20.936,0-37.956-17.026-37.956-37.962
		c0-20.931,17.026-37.956,37.956-37.956v-6.653C164.432,70.725,144.427,90.742,144.427,115.334z M94.439,116.737
		c0-40.97,33.325-74.295,74.29-74.295V35.79c-44.632,0-80.942,36.316-80.942,80.948c0,44.632,36.31,80.942,80.942,80.942v-6.653
		C127.765,191.027,94.439,157.702,94.439,116.737z M42.478,117.559C42.478,56.864,91.862,7.48,152.557,7.48V0.83
		c-64.365,0-116.726,52.361-116.726,116.723c0,64.365,52.36,116.726,116.726,116.726v-6.653
		C91.862,227.638,42.478,178.257,42.478,117.559z"/>
</g>
<g>
</g>
<g>
</g>
<g>
</g>
<g>
</g>
<g>
</g>
<g>
</g>
<g>
</g>
<g>
</g>
<g>
</g>
<g>
</g>
<g>
</g>
<g>
</g>
<g>
</g>
<g>
</g>
<g>
</g>
</svg>
