<?xml version="1.0" encoding="utf-8"?>
<!-- Generator: Adobe Illustrator 17.0.2, SVG Export Plug-In . SVG Version: 6.00 Build 0)  -->
<!DOCTYPE svg PUBLIC "-//W3C//DTD SVG 1.1//EN" "http://www.w3.org/Graphics/SVG/1.1/DTD/svg11.dtd">
<svg version="1.1" id="Capa_1" xmlns="http://www.w3.org/2000/svg" xmlns:xlink="http://www.w3.org/1999/xlink" x="0px" y="0px"
	 width="64px" height="64px" viewBox="0 0 64 64" enable-background="new 0 0 64 64" xml:space="preserve">
<path d="M60.493,51.934c0.466-0.577,0.438-1.409-0.062-1.955c-0.503-0.548-1.327-0.646-1.943-0.23
	c-2.836,1.909-6.147,2.919-9.577,2.919c-9.469,0-17.172-7.703-17.172-17.171c0-9.469,7.703-17.172,17.172-17.172
	c3.43,0,6.741,1.01,9.577,2.919c0.256,0.172,0.548,0.256,0.837,0.256c0.007,0,0.013,0,0.021,0c0.829,0,1.5-0.672,1.5-1.5
	c0-0.437-0.186-0.829-0.483-1.104c-5.006-6.109-12.384-9.608-20.275-9.608c-14.451,0-26.208,11.757-26.208,26.209
	c0,14.451,11.757,26.208,26.208,26.208C48.047,61.704,55.485,58.143,60.493,51.934z M40.086,58.704
	c-12.797,0-23.208-10.411-23.208-23.208c0-12.798,10.411-23.209,23.208-23.209c4.255,0,8.34,1.148,11.887,3.269
	c-1.007-0.153-2.03-0.231-3.062-0.231c-11.123,0-20.172,9.049-20.172,20.172c0,11.122,9.049,20.171,20.172,20.171
	c1.032,0,2.056-0.078,3.062-0.231C48.426,57.556,44.341,58.704,40.086,58.704z"/>
<path d="M62.969,30.714c-0.143-0.787-0.76-1.787-2.896-2.078l-2.553-0.348l-0.458-2.534c-0.46-2.548-1.884-2.822-2.475-2.822
	c-1.041,0-1.915,0.717-2.597,2.131l-1.12,2.32l-2.553-0.348c-2.432-0.333-3.158,0.746-3.401,1.353
	c-0.282,0.702-0.307,1.837,1.177,3.257l1.861,1.782l-1.119,2.32c-0.628,1.301-0.689,2.368-0.184,3.174
	c0.686,1.09,2.123,1.31,3.881,0.366l2.27-1.219l1.86,1.782c0.856,0.819,1.654,1.218,2.439,1.218h0.001
	c0.629,0,1.195-0.263,1.594-0.739c0.553-0.663,0.708-1.611,0.475-2.901l-0.458-2.535l2.27-1.22
	C62.882,32.653,63.11,31.501,62.969,30.714z M55.373,33.281l0.677,3.744l-2.747-2.631l-3.354,1.801l1.653-3.429l-2.747-2.631
	l3.771,0.513l1.652-3.427l0.677,3.746l3.771,0.513L55.373,33.281z"/>
<path d="M5.279,33.431c1.201-0.873,2.175-1.58,2.175-1.58l2.175,1.58c1.201,0.873,1.803,0.436,1.344-0.977
	c-0.459-1.412-0.831-2.557-0.831-2.557l2.175-1.58c1.201-0.873,0.971-1.58-0.513-1.58s-2.689,0-2.689,0l-0.831-2.557
	c-0.459-1.412-1.203-1.412-1.662,0c-0.459,1.412-0.831,2.557-0.831,2.557H3.104c-1.485,0-1.715,0.708-0.513,1.58
	s2.175,1.58,2.175,1.58l-0.831,2.557C3.476,33.866,4.078,34.304,5.279,33.431z"/>
<path d="M15.245,17.882l0.582-2.511l2.567-0.222c2.147-0.186,2.813-1.153,2.994-1.933s0.009-1.941-1.839-3.055l-2.207-1.328
	l0.582-2.51c0.298-1.286,0.176-2.283-0.365-2.963c-0.398-0.502-0.979-0.778-1.634-0.778c-0.752,0-1.532,0.36-2.387,1.101
	l-1.945,1.688L9.387,4.043C7.66,3.004,6.186,3.175,5.464,4.262C4.949,5.039,4.969,6.095,5.521,7.398l1.005,2.372l-1.946,1.688
	C3,12.829,2.99,13.979,3.261,14.702c0.229,0.612,0.936,1.675,3.314,1.47l2.566-0.222l1.004,2.371c0.79,1.867,1.845,2.26,2.59,2.26
	C13.438,20.581,14.701,20.229,15.245,17.882z M12.538,16.277l-1.484-3.503l-3.79,0.327l2.873-2.493L8.654,7.104l3.26,1.964
	l2.874-2.495l-0.859,3.707l3.261,1.963l-3.793,0.328L12.538,16.277z"/>
</svg>
