<?xml version="1.0" encoding="iso-8859-1"?>
<!-- Generator: Adobe Illustrator 18.1.1, SVG Export Plug-In . SVG Version: 6.00 Build 0)  -->
<svg version="1.1" id="Capa_1" xmlns="http://www.w3.org/2000/svg" xmlns:xlink="http://www.w3.org/1999/xlink" x="0px" y="0px"
	 viewBox="0 0 51.825 51.825" style="enable-background:new 0 0 51.825 51.825;" xml:space="preserve">
<g>
	<path style="fill:#010002;" d="M9.82,7.315h-3.5c-0.345,0-0.625,0.28-0.625,0.625V51.2c0,0.345,0.28,0.625,0.625,0.625h39.185
		c0.345,0,0.625-0.28,0.625-0.625V7.94c0-0.345-0.28-0.625-0.625-0.625h-3.5c-0.345,0-0.625,0.28-0.625,0.625v5.746H10.445V7.94
		C10.445,7.595,10.165,7.315,9.82,7.315z M42.005,14.936c0.345,0,0.625-0.28,0.625-0.625V8.565h2.25v42.01H6.945V8.565h2.25v5.746
		c0,0.345,0.28,0.625,0.625,0.625C9.82,14.936,42.005,14.936,42.005,14.936z"/>
	<path style="fill:#010002;" d="M32.496,0H19.33c-0.345,0-0.625,0.28-0.625,0.625v3.869h-5.958c-0.345,0-0.625,0.28-0.625,0.625
		v4.596c0,0.345,0.28,0.625,0.625,0.625h9.821c0.345,0,0.625-0.28,0.625-0.625V5.744h5.438v3.971c0,0.345,0.28,0.625,0.625,0.625
		h9.823c0.345,0,0.625-0.28,0.625-0.625V5.119c0-0.345-0.28-0.625-0.625-0.625h-5.958V0.625C33.121,0.28,32.84,0,32.496,0z
		 M38.453,5.744V9.09H29.88V5.119c0-0.345-0.28-0.625-0.625-0.625h-6.687c-0.345,0-0.625,0.28-0.625,0.625V9.09h-8.571V5.744h5.958
		c0.345,0,0.625-0.28,0.625-0.625V1.25h11.916v3.869c0,0.345,0.28,0.625,0.625,0.625H38.453z"/>
	<path style="fill:#010002;" d="M9.195,29.467v2.975c0,0.345,0.28,0.625,0.625,0.625h32.185c0.345,0,0.625-0.28,0.625-0.625v-2.975
		c0-0.345-0.28-0.625-0.625-0.625H9.82C9.475,28.842,9.195,29.122,9.195,29.467z M10.445,30.092H41.38v1.725H10.445V30.092z"/>
	<path style="fill:#010002;" d="M42.005,35.031H9.82c-0.345,0-0.625,0.28-0.625,0.625v2.979c0,0.345,0.28,0.625,0.625,0.625h32.185
		c0.345,0,0.625-0.28,0.625-0.625v-2.979C42.63,35.312,42.349,35.031,42.005,35.031z M41.38,38.01H10.445v-1.729H41.38V38.01z"/>
	<path style="fill:#010002;" d="M42.005,41.223H9.82c-0.345,0-0.625,0.28-0.625,0.625v2.979c0,0.345,0.28,0.625,0.625,0.625h32.185
		c0.345,0,0.625-0.28,0.625-0.625v-2.979C42.63,41.503,42.349,41.223,42.005,41.223z M41.38,44.201H10.445v-1.729H41.38V44.201z"/>
	<path style="fill:#010002;" d="M25.913,26.238c2.685,0,4.871-2.187,4.871-4.873c0-2.684-2.185-4.869-4.871-4.869
		s-4.871,2.185-4.871,4.869C21.042,24.052,23.227,26.238,25.913,26.238z M25.913,17.592c2.082,0,3.776,1.692,3.776,3.773
		c0,2.083-1.694,3.777-3.776,3.777s-3.777-1.694-3.777-3.777C22.136,19.284,23.83,17.592,25.913,17.592z"/>
</g>
<g>
</g>
<g>
</g>
<g>
</g>
<g>
</g>
<g>
</g>
<g>
</g>
<g>
</g>
<g>
</g>
<g>
</g>
<g>
</g>
<g>
</g>
<g>
</g>
<g>
</g>
<g>
</g>
<g>
</g>
</svg>
