<?xml version="1.0" encoding="iso-8859-1"?>
<!-- Generator: Adobe Illustrator 16.0.0, SVG Export Plug-In . SVG Version: 6.00 Build 0)  -->
<!DOCTYPE svg PUBLIC "-//W3C//DTD SVG 1.1//EN" "http://www.w3.org/Graphics/SVG/1.1/DTD/svg11.dtd">
<svg version="1.1" id="Capa_1" xmlns="http://www.w3.org/2000/svg" xmlns:xlink="http://www.w3.org/1999/xlink" x="0px" y="0px"
	 width="611.996px" height="611.996px" viewBox="0 0 611.996 611.996" style="enable-background:new 0 0 611.996 611.996;"
	 xml:space="preserve">
<g>
	<g>
		<g>
			<path d="M430.562,416.958c-4.175,0-8.318-1.8-11.18-5.268c-28.366-34.438-70.214-54.19-114.807-54.19
				c-43.145,0-84.108,18.71-112.381,51.343c-5.245,6.05-14.374,6.691-20.412,1.465c-6.043-5.233-6.698-14.374-1.464-20.412
				c33.779-38.978,82.713-61.34,134.258-61.34c53.27,0,103.264,23.59,137.146,64.731c5.083,6.171,4.203,15.295-1.968,20.371
				C437.062,415.882,433.798,416.958,430.562,416.958z"/>
			<path d="M517.055,315.529c-3.977,0-7.925-1.626-10.785-4.816c-51.312-57.305-124.826-90.168-201.699-90.168
				c-75.373,0-147.915,31.811-199.043,87.28c-5.407,5.882-14.571,6.258-20.447,0.834c-5.881-5.418-6.252-14.571-0.833-20.447
				C140.835,226.813,221.14,191.6,304.571,191.6c85.085,0,166.461,36.378,223.257,99.802c5.332,5.957,4.828,15.103-1.123,20.435
				C523.943,314.313,520.493,315.529,517.055,315.529z"/>
			<path d="M597.533,220.132c-3.901,0-7.78-1.557-10.634-4.654C514.334,136.962,411.422,91.93,304.559,91.93
				c-106.888,0-206.169,42.838-279.562,120.631c-5.494,5.818-14.641,6.084-20.458,0.596c-5.812-5.482-6.079-14.641-0.59-20.458
				c78.909-83.651,185.676-129.714,300.61-129.714c114.917,0,225.567,48.425,303.591,132.857c5.43,5.87,5.064,15.028-0.812,20.447
				C604.562,218.865,601.041,220.132,597.533,220.132z"/>
			<path d="M305.914,549.011c-29.234,0-53.016-23.787-53.016-53.027c0-29.239,23.781-53.021,53.016-53.021
				c29.24,0,53.021,23.781,53.021,53.021S335.147,549.011,305.914,549.011z M305.914,471.907c-13.274,0-24.07,10.803-24.07,24.076
				c0,13.28,10.796,24.083,24.07,24.083c13.274,0,24.076-10.803,24.076-24.083C329.989,482.71,319.188,471.907,305.914,471.907z"/>
		</g>
	</g>
</g>
<g>
</g>
<g>
</g>
<g>
</g>
<g>
</g>
<g>
</g>
<g>
</g>
<g>
</g>
<g>
</g>
<g>
</g>
<g>
</g>
<g>
</g>
<g>
</g>
<g>
</g>
<g>
</g>
<g>
</g>
</svg>
