<?xml version="1.0" encoding="iso-8859-1"?>
<!-- Generator: Adobe Illustrator 17.1.0, SVG Export Plug-In . SVG Version: 6.00 Build 0)  -->
<!DOCTYPE svg PUBLIC "-//W3C//DTD SVG 1.1//EN" "http://www.w3.org/Graphics/SVG/1.1/DTD/svg11.dtd">
<svg version="1.1" id="Capa_1" xmlns="http://www.w3.org/2000/svg" xmlns:xlink="http://www.w3.org/1999/xlink" x="0px" y="0px"
	 viewBox="0 0 192.747 192.747" style="enable-background:new 0 0 192.747 192.747;" xml:space="preserve">
<path d="M173.908,177.719h-8.958c-1.241,0-2.271-0.904-2.466-2.09h-4.236c-4.205,0-7.625-3.239-7.625-7.221V118.02
	c0-3.981,3.42-7.221,7.625-7.221h4.236c0.195-1.186,1.225-2.09,2.466-2.09h9.539c5.26,0,9.539,4.279,9.539,9.539v9.057h3.719V116.6
	c0-53.25-40.99-96.572-91.374-96.572S5,63.35,5,116.6v10.705h3.719v-9.057c0-5.26,4.279-9.539,9.539-9.539h9.538
	c1.241,0,2.271,0.904,2.466,2.09h4.236c4.205,0,7.625,3.239,7.625,7.221v50.389c0,3.981-3.42,7.221-7.625,7.221h-4.236
	c-0.195,1.186-1.225,2.09-2.466,2.09h-8.958c-5.58,0-10.12-4.54-10.12-10.12v-8.476H2.5c-1.381,0-2.5-1.119-2.5-2.5V116.6
	C0,60.593,43.233,15.028,96.374,15.028s96.374,45.565,96.374,101.572v40.023c0,1.381-1.119,2.5-2.5,2.5h-6.219v8.476
	C184.028,173.179,179.488,177.719,173.908,177.719z M167.832,172.719h6.076c2.823,0,5.12-2.297,5.12-5.12v-49.351
	c0-2.503-2.036-4.539-4.539-4.539h-6.657V172.719z M18.258,113.709c-2.503,0-4.539,2.036-4.539,4.539v49.351
	c0,2.823,2.297,5.12,5.12,5.12h6.458v-59.01H18.258z M158.249,115.799c-1.447,0-2.625,0.996-2.625,2.221v50.389
	c0,1.225,1.178,2.221,2.625,2.221h4.583v-54.83H158.249z M30.296,170.629h4.202c1.447,0,2.625-0.996,2.625-2.221V118.02
	c0-1.225-1.178-2.221-2.625-2.221h-4.202V170.629z M184.028,154.124h3.719v-21.818h-3.719V154.124z M5,154.124h3.719v-21.818H5
	V154.124z"/>
<g>
</g>
<g>
</g>
<g>
</g>
<g>
</g>
<g>
</g>
<g>
</g>
<g>
</g>
<g>
</g>
<g>
</g>
<g>
</g>
<g>
</g>
<g>
</g>
<g>
</g>
<g>
</g>
<g>
</g>
</svg>
