<?xml version="1.0" encoding="utf-8"?>
<!-- Generator: Adobe Illustrator 17.1.0, SVG Export Plug-In . SVG Version: 6.00 Build 0)  -->
<!DOCTYPE svg PUBLIC "-//W3C//DTD SVG 1.1//EN" "http://www.w3.org/Graphics/SVG/1.1/DTD/svg11.dtd">
<svg version="1.1" id="Capa_1" xmlns="http://www.w3.org/2000/svg" xmlns:xlink="http://www.w3.org/1999/xlink" x="0px" y="0px"
	 viewBox="0 0 200 200" enable-background="new 0 0 200 200" xml:space="preserve">
<g>
	<path fill="#010101" d="M127.8,160.7H72.2c-5.1,0-9.3,3.3-9.3,7.3s4.1,7.3,9.3,7.3h55.6c5.1,0,9.3-3.3,9.3-7.3
		C137.1,163.9,132.9,160.7,127.8,160.7z"/>
	<path fill="#010101" d="M127.8,182.9H72.2c-5.1,0-9.3,3.3-9.3,7.3s4.1,7.3,9.3,7.3h55.6c5.1,0,9.3-3.3,9.3-7.3
		S132.9,182.9,127.8,182.9z"/>
	<path fill="#010101" d="M142.6,145.8c1.8-3,2.2-6.4,2.4-8.8c0-0.3,0.1-0.7,0.1-0.9c1.7-12.7,6-20.1,10.4-27.9
		c5.4-9.5,11.5-20.3,11.5-38.9C167.1,32.1,137,2,100,2S32.9,32.1,32.9,69.1c0,18.6,6.1,29.4,11.5,38.9c4.7,8.3,9.2,16.1,10.7,30.3
		c0.4,8.4,7.3,15,15.7,15h58.3C134.7,153.4,139.8,150.5,142.6,145.8z M134.1,140.6c-1,1.7-2.8,2.8-4.9,2.8H70.8
		c-3.2,0-5.7-2.6-5.7-5.7c-3.5-33.9-22.2-37.5-22.2-68.5C42.9,37.6,68.5,12,100,12s57.1,25.6,57.1,57.1c0,30.1-17.6,34.4-21.9,65.5
		C135,136.3,134.9,139.1,134.1,140.6z"/>
</g>
<path d="M92.7,81.2c8-9.6,18.1-17.5,24.3-28.6c3.5-6.3,5.1-13.8,5.6-21.2c0.2-2.8-0.5-2.9-1.9-0.5c-3.1,5.4-8.1,9.8-12.9,13.6
	c-7.7,6-15.7,11.5-22,19c-8,9.7-9.8,23.4-6.2,35.3c0.8,2.6,2.2,2.5,3.2-0.1C85,92.4,88.4,86.3,92.7,81.2"/>
<path d="M125.9,51c-0.5-2.7-1.6-2.7-2.5-0.1c-4.7,13.2-16.7,22.3-26,32.4c-5.1,5.5-8.6,12.5-10.8,19.9c-2.8,8-3.7,16.7-2.5,25.3
	c0.5,3.2,5.3,1.8,4.8-1.3c-1-6.9-0.4-13.8,1.6-20.3c5.6-4.9,13.4-7.5,19.3-12.1c9.3-7.2,15.8-16.4,16.8-28.3
	C127.2,61.4,126.9,56.2,125.9,51z"/>
</svg>
