<?xml version="1.0" encoding="utf-8"?>
<!-- Generator: Adobe Illustrator 16.0.0, SVG Export Plug-In . SVG Version: 6.00 Build 0)  -->
<!DOCTYPE svg PUBLIC "-//W3C//DTD SVG 1.1//EN" "http://www.w3.org/Graphics/SVG/1.1/DTD/svg11.dtd">
<svg version="1.1" id="Layer_1" xmlns="http://www.w3.org/2000/svg" xmlns:xlink="http://www.w3.org/1999/xlink" x="0px" y="0px"
	 width="126px" height="126px" viewBox="0 0 126 126" enable-background="new 0 0 126 126" xml:space="preserve">
<path stroke="#6D6E70" stroke-width="0" stroke-linecap="round" stroke-linejoin="round" d="M100.516,100.512
	c20.686-20.684,20.684-54.341,0.002-75.024C79.83,4.799,46.17,4.799,25.486,25.483C4.799,46.169,4.801,79.829,25.488,100.517
	C46.17,121.201,79.83,121.201,100.516,100.512z M31.273,31.27c17.494-17.493,45.959-17.495,63.457,0.002
	c17.494,17.494,17.492,45.962-0.002,63.455c-17.494,17.494-45.961,17.496-63.455,0.002C13.775,77.233,13.777,48.764,31.273,31.27z
	 M63,64.774c9.023,0,16.363,7.341,16.363,16.365c0,9.027-7.34,16.371-16.363,16.371s-16.363-7.344-16.363-16.371
	C46.637,72.115,53.977,64.774,63,64.774z M41.717,56.339v-3.554c0-0.181,0.084-0.351,0.225-0.463l4.664-3.68l-4.664-3.681
	c-0.141-0.112-0.225-0.281-0.225-0.462v-3.552c0-0.313,0.18-0.604,0.459-0.738c0.113-0.055,0.236-0.082,0.359-0.082
	c0.182,0,0.363,0.062,0.506,0.175l9.756,7.695c0.197,0.158,0.307,0.392,0.307,0.645s-0.109,0.486-0.303,0.641l-9.758,7.697
	c-0.236,0.189-0.58,0.229-0.859,0.1C41.891,56.935,41.717,56.652,41.717,56.339z M74.145,49.285
	c-0.197-0.158-0.309-0.392-0.309-0.645s0.111-0.486,0.305-0.641l9.756-7.697c0.238-0.189,0.58-0.229,0.859-0.1
	c0.293,0.146,0.467,0.428,0.467,0.741v3.554c0,0.181-0.082,0.351-0.225,0.463l-4.664,3.68l4.664,3.681
	c0.143,0.112,0.225,0.281,0.225,0.462v3.552c0,0.313-0.18,0.604-0.459,0.738c-0.113,0.055-0.236,0.082-0.359,0.082
	c-0.182,0-0.363-0.062-0.506-0.175L74.145,49.285z"/>
</svg>
