<?xml version="1.0" encoding="iso-8859-1"?>
<!-- Generator: Adobe Illustrator 16.0.0, SVG Export Plug-In . SVG Version: 6.00 Build 0)  -->
<!DOCTYPE svg PUBLIC "-//W3C//DTD SVG 1.1//EN" "http://www.w3.org/Graphics/SVG/1.1/DTD/svg11.dtd">
<svg version="1.1" xmlns="http://www.w3.org/2000/svg" xmlns:xlink="http://www.w3.org/1999/xlink" x="0px" y="0px" width="512px"
	 height="512px" viewBox="0 0 512 512" style="enable-background:new 0 0 512 512;" xml:space="preserve">
<g id="Guides_For_Artboard">
</g>
<g id="_x30_">
</g>
<g id="_x31_">
</g>
<g id="_x32_">
</g>
<g id="_x33_">
</g>
<g id="_x34_">
</g>
<g id="_x35_">
</g>
<g id="_x36_">
</g>
<g id="_x37_">
</g>
<g id="_x38_">
</g>
<g id="_x39_">
</g>
<g id="_x31_0">
</g>
<g id="_x31_1">
</g>
<g id="_x31_2">
</g>
<g id="_x31_3">
</g>
<g id="_x31_4">
</g>
<g id="_x31_5">
</g>
<g id="_x31_6">
</g>
<g id="_x31_7">
</g>
<g id="_x31_8">
</g>
<g id="_x31_9">
</g>
<g id="_x32_0">
</g>
<g id="_x32_1">
</g>
<g id="_x32_2">
</g>
<g id="_x32_3">
</g>
<g id="_x32_4">
</g>
<g id="_x32_5">
</g>
<g id="_x32_6">
</g>
<g id="_x32_7">
</g>
<g id="_x32_8">
</g>
<g id="_x32_9">
</g>
<g id="_x33_0">
</g>
<g id="_x33_1">
</g>
<g id="_x33_2">
</g>
<g id="_x33_3">
</g>
<g id="_x33_4">
</g>
<g id="_x33_5">
</g>
<g id="_x33_6">
</g>
<g id="_x33_7">
</g>
<g id="_x33_8">
</g>
<g id="_x33_9">
</g>
<g id="_x34_0">
</g>
<g id="_x34_1">
</g>
<g id="_x34_2">
</g>
<g id="_x34_3">
	<g>
		<path style="fill:#0F1011;" d="M291.22,107.838c20.607,0,37.307,16.702,37.307,37.308c0,20.604-16.699,37.309-37.307,37.309
			c-20.605,0-37.31-16.705-37.31-37.309C253.91,124.54,270.614,107.838,291.22,107.838z"/>
		<path style="fill:#0F1011;" d="M411.212,118.918c-6.186-6.17-16.183-6.17-22.327,0l-75.71,75.699
			c-6.017-3.929-13.187-6.233-20.908-6.233c-9.532,0-18.229,3.497-24.934,9.247l-78.714-78.713c-6.163-6.17-16.166-6.17-22.334,0
			c-6.159,6.165-6.159,16.171,0,22.329l87.625,88.498l0.012,236.479c0,8.725,7.07,15.805,15.794,15.805
			c8.723,0,15.791-7.066,15.791-15.805V354.713c2.198,0.409,4.448,0.636,6.767,0.636c2.32,0,4.565-0.227,6.781-0.636v111.511
			c0,8.73,7.061,15.805,15.793,15.805c8.713,0,15.792-7.061,15.792-15.805l0.073-243.256l80.499-81.721
			C417.384,135.089,417.384,125.083,411.212,118.918z"/>
		<g>
			<path d="M243.711,256.204h-31.074h-1.7c-4.533,0-8.357,1.558-11.474,4.674c-3.116,3.118-4.675,8.643-4.675,13.175v6.655h-67.146
				c-9.389,0-16.999,7.609-16.999,16.998v0.995v7.649c0,1.762,0.268,3.458,0.764,5.055c2.152,6.92,8.607,11.945,16.235,11.945h2.55
				h49.325h15.412h48.787L243.711,256.204z"/>
			<path d="M483.345,264.278c-4.819-4.25-10.912-6.941-18.275-8.074H340.901l-0.02,67.146H490.57v-42.498
				C490.57,274.053,488.16,268.529,483.345,264.278z"/>
		</g>
		<g>
			<path d="M243.716,342.048H91.095v-142.79c0-4.534-1.7-8.644-5.1-12.325s-7.507-5.524-12.324-5.524s-8.924,1.843-12.324,5.524
				c-3.399,3.684-5.1,7.793-5.1,12.325v226.935h34.848v-49.296h152.623L243.716,342.048z"/>
			<polygon points="340.876,342.048 340.866,376.896 456.571,376.896 456.571,426.192 491.419,426.192 491.419,342.048 			"/>
		</g>
		<g>
			<path d="M83.036,29.972c-34.492,0-62.455,27.97-62.455,62.463c0,34.473,27.962,62.436,62.455,62.436
				c34.484,0,62.438-27.963,62.438-62.436C145.474,57.941,117.52,29.972,83.036,29.972z M83.036,135.901
				c-23.981,0-43.495-19.502-43.495-43.471c0-23.997,19.514-43.51,43.495-43.51c23.981,0,43.479,19.518,43.479,43.51
				C126.511,116.399,107.013,135.901,83.036,135.901z"/>
			<path d="M88.402,88.987l0.004-24.111c0-2.964-2.399-5.355-5.37-5.355c-2.983,0-5.386,2.392-5.386,5.355v24.111v10.744v0.009
				h10.752v-0.009l24.115,0.009c2.957,0,5.368-2.398,5.368-5.375c0-2.979-2.411-5.378-5.368-5.378H88.402z"/>
		</g>
	</g>
</g>
<g id="_x34_4">
</g>
<g id="_x34_5">
</g>
<g id="_x34_6">
</g>
<g id="_x34_7">
</g>
<g id="_x34_8">
</g>
<g id="_x34_9">
</g>
<g id="_x35_0">
</g>
<g id="_x35_1">
</g>
<g id="_x35_2">
</g>
<g id="_x35_3">
</g>
<g id="_x35_4">
</g>
<g id="_x35_5">
</g>
<g id="_x35_6">
</g>
<g id="_x35_7">
</g>
<g id="_x35_8">
</g>
<g id="_x35_9">
</g>
<g id="_x36_0">
</g>
<g id="_x36_1">
</g>
<g id="_x36_2">
</g>
<g id="_x36_3">
</g>
<g id="_x36_4">
</g>
<g id="_x36_5">
</g>
<g id="_x36_6">
</g>
<g id="_x36_7">
</g>
<g id="_x36_8">
</g>
<g id="_x36_9">
</g>
<g id="_x37_0">
</g>
</svg>
